#tb 0: 1/44100
#media_type 0: audio
#codec_id 0: pcm_s16le
#sample_rate 0: 44100
#channel_layout_name 0: stereo
0,          0,          0,     4096,    16384, 0x9af6a050
0,       4096,       4096,     4096,    16384, 0x40f8eca8
0,       8192,       8192,     4096,    16384, 0x70eabed8
0,      12288,      12288,     4096,    16384, 0xefedcf4f
0,      16384,      16384,     4096,    16384, 0x699fbf29
0,      20480,      20480,     4096,    16384, 0xbd8ae03c
0,      24576,      24576,     4096,    16384, 0x8663b8e4
0,      28672,      28672,     4096,    16384, 0xfadfcfaa
0,      32768,      32768,     4096,    16384, 0x271bc39d
0,      36864,      36864,     4096,    16384, 0x5f23d8be
0,      40960,      40960,     4096,    16384, 0x1b0de341
0,      45056,      45056,     4096,    16384, 0x9157d43a
0,      49152,      49152,     4096,    16384, 0x75bbe2c2
0,      53248,      53248,     4096,    16384, 0x8a5cee7d
0,      57344,      57344,     4096,    16384, 0x60dee072
0,      61440,      61440,     4096,    16384, 0x1dfaede0
0,      65536,      65536,     4096,    16384, 0x165ee0f2
0,      69632,      69632,     4096,    16384, 0xb9edd546
0,      73728,      73728,     4096,    16384, 0x1b0de341
0,      77824,      77824,     4096,    16384, 0x9157d43a
